<svg width="220" height="80" viewBox="0 0 220 80" fill="none" xmlns="http://www.w3.org/2000/svg">
<path d="M101.575 27.31C103.738 27.7133 105.517 28.795 106.91 30.555C108.303 32.315 109 34.3317 109 36.605C109 38.6583 108.487 40.4733 107.46 42.05C106.47 43.59 105.022 44.8 103.115 45.68C101.208 46.56 98.9533 47 96.35 47H79.795V8.61H95.635C98.2383 8.61 100.475 9.03167 102.345 9.875C104.252 10.7183 105.682 11.8917 106.635 13.395C107.625 14.8983 108.12 16.6033 108.12 18.51C108.12 20.7467 107.515 22.6167 106.305 24.12C105.132 25.6233 103.555 26.6867 101.575 27.31ZM87.495 24.45H94.535C96.3683 24.45 97.78 24.0467 98.77 23.24C99.76 22.3967 100.255 21.205 100.255 19.665C100.255 18.125 99.76 16.9333 98.77 16.09C97.78 15.2467 96.3683 14.825 94.535 14.825H87.495V24.45ZM95.25 40.73C97.12 40.73 98.5683 40.29 99.595 39.41C100.658 38.53 101.19 37.2833 101.19 35.67C101.19 34.02 100.64 32.7367 99.54 31.82C98.44 30.8667 96.955 30.39 95.085 30.39H87.495V40.73H95.25ZM143.762 31.105C143.762 32.205 143.688 33.195 143.542 34.075H121.267C121.45 36.275 122.22 37.9983 123.577 39.245C124.933 40.4917 126.602 41.115 128.582 41.115C131.442 41.115 133.477 39.8867 134.687 37.43H142.992C142.112 40.3633 140.425 42.7833 137.932 44.69C135.438 46.56 132.377 47.495 128.747 47.495C125.813 47.495 123.173 46.8533 120.827 45.57C118.517 44.25 116.702 42.3983 115.382 40.015C114.098 37.6317 113.457 34.8817 113.457 31.765C113.457 28.6117 114.098 25.8433 115.382 23.46C116.665 21.0767 118.462 19.2433 120.772 17.96C123.082 16.6767 125.74 16.035 128.747 16.035C131.643 16.035 134.228 16.6583 136.502 17.905C138.812 19.1517 140.59 20.93 141.837 23.24C143.12 25.5133 143.762 28.135 143.762 31.105ZM135.787 28.905C135.75 26.925 135.035 25.3483 133.642 24.175C132.248 22.965 130.543 22.36 128.527 22.36C126.62 22.36 125.007 22.9467 123.687 24.12C122.403 25.2567 121.615 26.8517 121.322 28.905H135.787ZM161.342 47.495C158.849 47.495 156.612 47.055 154.632 46.175C152.652 45.2583 151.075 44.03 149.902 42.49C148.765 40.95 148.142 39.245 148.032 37.375H155.787C155.934 38.5483 156.502 39.52 157.492 40.29C158.519 41.06 159.784 41.445 161.287 41.445C162.754 41.445 163.89 41.1517 164.697 40.565C165.54 39.9783 165.962 39.2267 165.962 38.31C165.962 37.32 165.449 36.5867 164.422 36.11C163.432 35.5967 161.837 35.0467 159.637 34.46C157.364 33.91 155.494 33.3417 154.027 32.755C152.597 32.1683 151.35 31.27 150.287 30.06C149.26 28.85 148.747 27.2183 148.747 25.165C148.747 23.4783 149.224 21.9383 150.177 20.545C151.167 19.1517 152.56 18.0517 154.357 17.245C156.19 16.4383 158.335 16.035 160.792 16.035C164.422 16.035 167.319 16.9517 169.482 18.785C171.645 20.5817 172.837 23.02 173.057 26.1H165.687C165.577 24.89 165.064 23.9367 164.147 23.24C163.267 22.5067 162.075 22.14 160.572 22.14C159.179 22.14 158.097 22.3967 157.327 22.91C156.594 23.4233 156.227 24.1383 156.227 25.055C156.227 26.0817 156.74 26.87 157.767 27.42C158.794 27.9333 160.389 28.465 162.552 29.015C164.752 29.565 166.567 30.1333 167.997 30.72C169.427 31.3067 170.655 32.2233 171.682 33.47C172.745 34.68 173.295 36.2933 173.332 38.31C173.332 40.07 172.837 41.6467 171.847 43.04C170.894 44.4333 169.5 45.5333 167.667 46.34C165.87 47.11 163.762 47.495 161.342 47.495ZM188.918 22.855V37.595C188.918 38.6217 189.156 39.3733 189.633 39.85C190.146 40.29 190.989 40.51 192.163 40.51H195.738V47H190.898C184.408 47 181.163 43.8467 181.163 37.54V22.855H177.533V16.53H181.163V8.995H188.918V16.53H195.738V22.855H188.918Z" fill="#373737"/>
<path opacity="0.7" d="M79.592 69.416C79.592 68.328 79.8427 67.352 80.344 66.488C80.856 65.624 81.544 64.952 82.408 64.472C83.2827 63.9813 84.2373 63.736 85.272 63.736C86.456 63.736 87.5067 64.0293 88.424 64.616C89.352 65.192 90.024 66.0133 90.44 67.08H88.248C87.96 66.4933 87.56 66.056 87.048 65.768C86.536 65.48 85.944 65.336 85.272 65.336C84.536 65.336 83.88 65.5013 83.304 65.832C82.728 66.1627 82.2747 66.6373 81.944 67.256C81.624 67.8747 81.464 68.5947 81.464 69.416C81.464 70.2373 81.624 70.9573 81.944 71.576C82.2747 72.1947 82.728 72.6747 83.304 73.016C83.88 73.3467 84.536 73.512 85.272 73.512C85.944 73.512 86.536 73.368 87.048 73.08C87.56 72.792 87.96 72.3547 88.248 71.768H90.44C90.024 72.8347 89.352 73.656 88.424 74.232C87.5067 74.808 86.456 75.096 85.272 75.096C84.2267 75.096 83.272 74.856 82.408 74.376C81.544 73.8853 80.856 73.208 80.344 72.344C79.8427 71.48 79.592 70.504 79.592 69.416ZM94.699 63.16V75H92.875V63.16H94.699ZM105.474 70.376C105.474 70.7067 105.452 71.0053 105.41 71.272H98.6738C98.7271 71.976 98.9884 72.5413 99.4578 72.968C99.9271 73.3947 100.503 73.608 101.186 73.608C102.167 73.608 102.86 73.1973 103.266 72.376H105.234C104.967 73.1867 104.482 73.8533 103.778 74.376C103.084 74.888 102.22 75.144 101.186 75.144C100.343 75.144 99.5858 74.9573 98.9138 74.584C98.2524 74.2 97.7298 73.6667 97.3458 72.984C96.9724 72.2907 96.7858 71.4907 96.7858 70.584C96.7858 69.6773 96.9671 68.8827 97.3298 68.2C97.7031 67.5067 98.2204 66.9733 98.8818 66.6C99.5538 66.2267 100.322 66.04 101.186 66.04C102.018 66.04 102.759 66.2213 103.41 66.584C104.06 66.9467 104.567 67.4587 104.93 68.12C105.292 68.7707 105.474 69.5227 105.474 70.376ZM103.57 69.8C103.559 69.128 103.319 68.5893 102.85 68.184C102.38 67.7787 101.799 67.576 101.106 67.576C100.476 67.576 99.9378 67.7787 99.4898 68.184C99.0418 68.5787 98.7751 69.1173 98.6898 69.8H103.57ZM106.961 70.552C106.961 69.6667 107.142 68.8827 107.505 68.2C107.878 67.5173 108.379 66.9893 109.009 66.616C109.649 66.232 110.353 66.04 111.121 66.04C111.814 66.04 112.417 66.1787 112.929 66.456C113.451 66.7227 113.867 67.0587 114.177 67.464V66.184H116.017V75H114.177V73.688C113.867 74.104 113.446 74.4507 112.913 74.728C112.379 75.0053 111.771 75.144 111.089 75.144C110.331 75.144 109.638 74.952 109.009 74.568C108.379 74.1733 107.878 73.6293 107.505 72.936C107.142 72.232 106.961 71.4373 106.961 70.552ZM114.177 70.584C114.177 69.976 114.049 69.448 113.793 69C113.547 68.552 113.222 68.2107 112.817 67.976C112.411 67.7413 111.974 67.624 111.505 67.624C111.035 67.624 110.598 67.7413 110.193 67.976C109.787 68.2 109.457 68.536 109.201 68.984C108.955 69.4213 108.833 69.944 108.833 70.552C108.833 71.16 108.955 71.6933 109.201 72.152C109.457 72.6107 109.787 72.9627 110.193 73.208C110.609 73.4427 111.046 73.56 111.505 73.56C111.974 73.56 112.411 73.4427 112.817 73.208C113.222 72.9733 113.547 72.632 113.793 72.184C114.049 71.7253 114.177 71.192 114.177 70.584ZM123.161 66.04C123.854 66.04 124.473 66.184 125.017 66.472C125.571 66.76 126.003 67.1867 126.313 67.752C126.622 68.3173 126.777 69 126.777 69.8V75H124.969V70.072C124.969 69.2827 124.771 68.68 124.377 68.264C123.982 67.8373 123.443 67.624 122.761 67.624C122.078 67.624 121.534 67.8373 121.129 68.264C120.734 68.68 120.537 69.2827 120.537 70.072V75H118.713V66.184H120.537V67.192C120.835 66.8293 121.214 66.5467 121.673 66.344C122.142 66.1413 122.638 66.04 123.161 66.04ZM130.331 65.016C130 65.016 129.723 64.904 129.499 64.68C129.275 64.456 129.163 64.1787 129.163 63.848C129.163 63.5173 129.275 63.24 129.499 63.016C129.723 62.792 130 62.68 130.331 62.68C130.651 62.68 130.923 62.792 131.147 63.016C131.371 63.24 131.483 63.5173 131.483 63.848C131.483 64.1787 131.371 64.456 131.147 64.68C130.923 64.904 130.651 65.016 130.331 65.016ZM131.227 66.184V75H129.403V66.184H131.227ZM138.37 66.04C139.063 66.04 139.682 66.184 140.226 66.472C140.781 66.76 141.213 67.1867 141.522 67.752C141.831 68.3173 141.986 69 141.986 69.8V75H140.178V70.072C140.178 69.2827 139.981 68.68 139.586 68.264C139.191 67.8373 138.653 67.624 137.97 67.624C137.287 67.624 136.743 67.8373 136.338 68.264C135.943 68.68 135.746 69.2827 135.746 70.072V75H133.922V66.184H135.746V67.192C136.045 66.8293 136.423 66.5467 136.882 66.344C137.351 66.1413 137.847 66.04 138.37 66.04ZM148.164 66.04C148.847 66.04 149.45 66.1787 149.972 66.456C150.506 66.7227 150.922 67.0587 151.22 67.464V66.184H153.06V75.144C153.06 75.9547 152.89 76.6747 152.548 77.304C152.207 77.944 151.711 78.4453 151.06 78.808C150.42 79.1707 149.652 79.352 148.756 79.352C147.562 79.352 146.57 79.0693 145.78 78.504C144.991 77.9493 144.543 77.192 144.436 76.232H146.244C146.383 76.6907 146.676 77.0587 147.124 77.336C147.583 77.624 148.127 77.768 148.756 77.768C149.492 77.768 150.084 77.544 150.532 77.096C150.991 76.648 151.22 75.9973 151.22 75.144V73.672C150.911 74.088 150.49 74.44 149.956 74.728C149.434 75.0053 148.836 75.144 148.164 75.144C147.396 75.144 146.692 74.952 146.052 74.568C145.423 74.1733 144.922 73.6293 144.548 72.936C144.186 72.232 144.004 71.4373 144.004 70.552C144.004 69.6667 144.186 68.8827 144.548 68.2C144.922 67.5173 145.423 66.9893 146.052 66.616C146.692 66.232 147.396 66.04 148.164 66.04ZM151.22 70.584C151.22 69.976 151.092 69.448 150.836 69C150.591 68.552 150.266 68.2107 149.86 67.976C149.455 67.7413 149.018 67.624 148.548 67.624C148.079 67.624 147.642 67.7413 147.236 67.976C146.831 68.2 146.5 68.536 146.244 68.984C145.999 69.4213 145.876 69.944 145.876 70.552C145.876 71.16 145.999 71.6933 146.244 72.152C146.5 72.6107 146.831 72.9627 147.236 73.208C147.652 73.4427 148.09 73.56 148.548 73.56C149.018 73.56 149.455 73.4427 149.86 73.208C150.266 72.9733 150.591 72.632 150.836 72.184C151.092 71.7253 151.22 71.192 151.22 70.584ZM163.876 75.112C163.13 75.112 162.458 74.984 161.86 74.728C161.263 74.4613 160.794 74.088 160.452 73.608C160.111 73.128 159.94 72.568 159.94 71.928H161.892C161.935 72.408 162.122 72.8027 162.452 73.112C162.794 73.4213 163.268 73.576 163.876 73.576C164.506 73.576 164.996 73.4267 165.348 73.128C165.7 72.8187 165.876 72.424 165.876 71.944C165.876 71.5707 165.764 71.2667 165.54 71.032C165.327 70.7973 165.055 70.616 164.724 70.488C164.404 70.36 163.956 70.2213 163.38 70.072C162.655 69.88 162.063 69.688 161.604 69.496C161.156 69.2933 160.772 68.984 160.452 68.568C160.132 68.152 159.972 67.5973 159.972 66.904C159.972 66.264 160.132 65.704 160.452 65.224C160.772 64.744 161.22 64.376 161.796 64.12C162.372 63.864 163.039 63.736 163.796 63.736C164.874 63.736 165.754 64.008 166.436 64.552C167.13 65.0853 167.514 65.8213 167.588 66.76H165.572C165.54 66.3547 165.348 66.008 164.996 65.72C164.644 65.432 164.18 65.288 163.604 65.288C163.082 65.288 162.655 65.4213 162.324 65.688C161.994 65.9547 161.828 66.3387 161.828 66.84C161.828 67.1813 161.93 67.464 162.132 67.688C162.346 67.9013 162.612 68.072 162.932 68.2C163.252 68.328 163.69 68.4667 164.244 68.616C164.98 68.8187 165.578 69.0213 166.036 69.224C166.506 69.4267 166.9 69.7413 167.22 70.168C167.551 70.584 167.716 71.144 167.716 71.848C167.716 72.4133 167.562 72.9467 167.252 73.448C166.954 73.9493 166.511 74.3547 165.924 74.664C165.348 74.9627 164.666 75.112 163.876 75.112ZM178.249 70.376C178.249 70.7067 178.227 71.0053 178.185 71.272H171.449C171.502 71.976 171.763 72.5413 172.233 72.968C172.702 73.3947 173.278 73.608 173.961 73.608C174.942 73.608 175.635 73.1973 176.041 72.376H178.009C177.742 73.1867 177.257 73.8533 176.553 74.376C175.859 74.888 174.995 75.144 173.961 75.144C173.118 75.144 172.361 74.9573 171.689 74.584C171.027 74.2 170.505 73.6667 170.121 72.984C169.747 72.2907 169.561 71.4907 169.561 70.584C169.561 69.6773 169.742 68.8827 170.105 68.2C170.478 67.5067 170.995 66.9733 171.657 66.6C172.329 66.2267 173.097 66.04 173.961 66.04C174.793 66.04 175.534 66.2213 176.185 66.584C176.835 66.9467 177.342 67.4587 177.705 68.12C178.067 68.7707 178.249 69.5227 178.249 70.376ZM176.345 69.8C176.334 69.128 176.094 68.5893 175.625 68.184C175.155 67.7787 174.574 67.576 173.881 67.576C173.251 67.576 172.713 67.7787 172.265 68.184C171.817 68.5787 171.55 69.1173 171.465 69.8H176.345ZM182.168 67.464C182.434 67.016 182.786 66.6693 183.224 66.424C183.672 66.168 184.2 66.04 184.808 66.04V67.928H184.344C183.629 67.928 183.085 68.1093 182.712 68.472C182.349 68.8347 182.168 69.464 182.168 70.36V75H180.344V66.184H182.168V67.464ZM190.192 73.368L192.688 66.184H194.624L191.264 75H189.088L185.744 66.184H187.696L190.192 73.368ZM197.231 65.016C196.9 65.016 196.623 64.904 196.399 64.68C196.175 64.456 196.063 64.1787 196.063 63.848C196.063 63.5173 196.175 63.24 196.399 63.016C196.623 62.792 196.9 62.68 197.231 62.68C197.551 62.68 197.823 62.792 198.047 63.016C198.271 63.24 198.383 63.5173 198.383 63.848C198.383 64.1787 198.271 64.456 198.047 64.68C197.823 64.904 197.551 65.016 197.231 65.016ZM198.127 66.184V75H196.303V66.184H198.127ZM200.214 70.584C200.214 69.6773 200.395 68.8827 200.758 68.2C201.131 67.5067 201.643 66.9733 202.294 66.6C202.945 66.2267 203.691 66.04 204.534 66.04C205.601 66.04 206.481 66.296 207.174 66.808C207.878 67.3093 208.353 68.0293 208.598 68.968H206.63C206.47 68.5307 206.214 68.1893 205.862 67.944C205.51 67.6987 205.067 67.576 204.534 67.576C203.787 67.576 203.19 67.8427 202.742 68.376C202.305 68.8987 202.086 69.6347 202.086 70.584C202.086 71.5333 202.305 72.2747 202.742 72.808C203.19 73.3413 203.787 73.608 204.534 73.608C205.59 73.608 206.289 73.144 206.63 72.216H208.598C208.342 73.112 207.862 73.8267 207.158 74.36C206.454 74.8827 205.579 75.144 204.534 75.144C203.691 75.144 202.945 74.9573 202.294 74.584C201.643 74.2 201.131 73.6667 200.758 72.984C200.395 72.2907 200.214 71.4907 200.214 70.584ZM218.796 70.376C218.796 70.7067 218.774 71.0053 218.732 71.272H211.996C212.049 71.976 212.31 72.5413 212.78 72.968C213.249 73.3947 213.825 73.608 214.508 73.608C215.489 73.608 216.182 73.1973 216.588 72.376H218.556C218.289 73.1867 217.804 73.8533 217.1 74.376C216.406 74.888 215.542 75.144 214.508 75.144C213.665 75.144 212.908 74.9573 212.236 74.584C211.574 74.2 211.052 73.6667 210.668 72.984C210.294 72.2907 210.108 71.4907 210.108 70.584C210.108 69.6773 210.289 68.8827 210.652 68.2C211.025 67.5067 211.542 66.9733 212.204 66.6C212.876 66.2267 213.644 66.04 214.508 66.04C215.34 66.04 216.081 66.2213 216.732 66.584C217.382 66.9467 217.889 67.4587 218.252 68.12C218.614 68.7707 218.796 69.5227 218.796 70.376ZM216.892 69.8C216.881 69.128 216.641 68.5893 216.172 68.184C215.702 67.7787 215.121 67.576 214.428 67.576C213.798 67.576 213.26 67.7787 212.812 68.184C212.364 68.5787 212.097 69.1173 212.012 69.8H216.892Z" fill="#2F2F2F"/>
<path d="M40.3494 9.34082C40.2294 10.0908 40.1694 10.8408 40.1694 11.5908C40.1694 18.3407 45.6293 23.7976 52.3492 23.7976C53.0992 23.7976 53.8192 23.7106 54.5692 23.5906V47.7972C54.5692 57.9701 48.5693 64 38.3694 64H16.2028C5.99991 64 0 57.9701 0 47.7972V25.6006C0 15.4007 5.99991 9.34082 16.2028 9.34082H40.3494ZM40.9524 27.5805C40.1394 27.4905 39.3324 27.8505 38.8494 28.5105L31.5925 37.9004L23.2797 31.3605C22.7697 30.9705 22.1697 30.8175 21.5697 30.8805C20.9727 30.9705 20.4327 31.2975 20.0697 31.7775L11.1928 43.3303L11.0098 43.6003C10.4998 44.5573 10.7398 45.7873 11.6398 46.4503C12.0598 46.7203 12.5098 46.9003 13.0198 46.9003C13.7128 46.9303 14.3698 46.5673 14.7898 46.0003L22.3197 36.3074L30.8695 42.7303L31.1395 42.9073C32.0995 43.4173 33.2995 43.1803 33.9895 42.2773L42.6594 31.0905L42.5394 31.1505C43.0194 30.4905 43.1094 29.6505 42.7794 28.9005C42.4524 28.1505 41.7294 27.6405 40.9524 27.5805ZM52.7695 4C56.7594 4 59.9994 7.23995 59.9994 11.2299C59.9994 15.2198 56.7594 18.4598 52.7695 18.4598C48.7796 18.4598 45.5396 15.2198 45.5396 11.2299C45.5396 7.23995 48.7796 4 52.7695 4Z" fill="#FE7443"/>
</svg>
