<svg width="191" height="58" viewBox="0 0 191 58" fill="none" xmlns="http://www.w3.org/2000/svg">
<path d="M75.492 29.444L72.524 25.888C71.7027 26.0933 70.8627 26.196 70.004 26.196C68.1747 26.196 66.4947 25.7667 64.964 24.908C63.4333 24.0493 62.22 22.864 61.324 21.352C60.428 19.8213 59.98 18.0947 59.98 16.172C59.98 14.268 60.428 12.56 61.324 11.048C62.22 9.51733 63.4333 8.32267 64.964 7.464C66.4947 6.60533 68.1747 6.176 70.004 6.176C71.852 6.176 73.532 6.60533 75.044 7.464C76.5747 8.32267 77.7787 9.51733 78.656 11.048C79.552 12.56 80 14.268 80 16.172C80 17.908 79.6267 19.4947 78.88 20.932C78.152 22.3507 77.1533 23.508 75.884 24.404L80.364 29.444H75.492ZM64.012 16.172C64.012 17.4787 64.264 18.6267 64.768 19.616C65.272 20.6053 65.972 21.3707 66.868 21.912C67.7827 22.4347 68.828 22.696 70.004 22.696C71.18 22.696 72.216 22.4347 73.112 21.912C74.008 21.3707 74.708 20.6053 75.212 19.616C75.716 18.6267 75.968 17.4787 75.968 16.172C75.968 14.8653 75.716 13.7267 75.212 12.756C74.708 11.7667 74.008 11.0107 73.112 10.488C72.216 9.96533 71.18 9.704 70.004 9.704C68.828 9.704 67.7827 9.96533 66.868 10.488C65.972 11.0107 65.272 11.7667 64.768 12.756C64.264 13.7267 64.012 14.8653 64.012 16.172ZM97.9151 10.488V26H93.9671V24.04C93.4631 24.712 92.8004 25.244 91.9791 25.636C91.1764 26.0093 90.2991 26.196 89.3471 26.196C88.1337 26.196 87.0604 25.944 86.1271 25.44C85.1937 24.9173 84.4564 24.1613 83.9151 23.172C83.3924 22.164 83.1311 20.9693 83.1311 19.588V10.488H87.0511V19.028C87.0511 20.26 87.3591 21.212 87.9751 21.884C88.5911 22.5373 89.4311 22.864 90.4951 22.864C91.5777 22.864 92.4271 22.5373 93.0431 21.884C93.6591 21.212 93.9671 20.26 93.9671 19.028V10.488H97.9151ZM101.075 18.188C101.075 16.62 101.383 15.2293 101.999 14.016C102.633 12.8027 103.483 11.8693 104.547 11.216C105.629 10.5627 106.833 10.236 108.159 10.236C109.316 10.236 110.324 10.4693 111.183 10.936C112.06 11.4027 112.76 11.9907 113.283 12.7V10.488H117.231V26H113.283V23.732C112.779 24.46 112.079 25.0667 111.183 25.552C110.305 26.0187 109.288 26.252 108.131 26.252C106.824 26.252 105.629 25.916 104.547 25.244C103.483 24.572 102.633 23.6293 101.999 22.416C101.383 21.184 101.075 19.7747 101.075 18.188ZM113.283 18.244C113.283 17.292 113.096 16.48 112.723 15.808C112.349 15.1173 111.845 14.5947 111.211 14.24C110.576 13.8667 109.895 13.68 109.167 13.68C108.439 13.68 107.767 13.8573 107.151 14.212C106.535 14.5667 106.031 15.0893 105.639 15.78C105.265 16.452 105.079 17.2547 105.079 18.188C105.079 19.1213 105.265 19.9427 105.639 20.652C106.031 21.3427 106.535 21.8747 107.151 22.248C107.785 22.6213 108.457 22.808 109.167 22.808C109.895 22.808 110.576 22.6307 111.211 22.276C111.845 21.9027 112.349 21.38 112.723 20.708C113.096 20.0173 113.283 19.196 113.283 18.244ZM125.279 5.28V26H121.359V5.28H125.279ZM131.44 8.64C130.75 8.64 130.171 8.42533 129.704 7.996C129.256 7.548 129.032 6.99733 129.032 6.344C129.032 5.69067 129.256 5.14933 129.704 4.72C130.171 4.272 130.75 4.048 131.44 4.048C132.131 4.048 132.7 4.272 133.148 4.72C133.615 5.14933 133.848 5.69067 133.848 6.344C133.848 6.99733 133.615 7.548 133.148 7.996C132.7 8.42533 132.131 8.64 131.44 8.64ZM133.372 10.488V26H129.452V10.488H133.372ZM144.657 13.708H141.941V26H137.965V13.708H136.201V10.488H137.965V9.704C137.965 7.8 138.507 6.4 139.589 5.504C140.672 4.608 142.305 4.188 144.489 4.244V7.548C143.537 7.52933 142.875 7.688 142.501 8.024C142.128 8.36 141.941 8.96667 141.941 9.844V10.488H144.657V13.708ZM149.486 8.64C148.795 8.64 148.216 8.42533 147.75 7.996C147.302 7.548 147.078 6.99733 147.078 6.344C147.078 5.69067 147.302 5.14933 147.75 4.72C148.216 4.272 148.795 4.048 149.486 4.048C150.176 4.048 150.746 4.272 151.194 4.72C151.66 5.14933 151.894 5.69067 151.894 6.344C151.894 6.99733 151.66 7.548 151.194 7.996C150.746 8.42533 150.176 8.64 149.486 8.64ZM151.418 10.488V26H147.498V10.488H151.418ZM170.011 17.908C170.011 18.468 169.973 18.972 169.899 19.42H158.559C158.652 20.54 159.044 21.4173 159.735 22.052C160.425 22.6867 161.275 23.004 162.283 23.004C163.739 23.004 164.775 22.3787 165.391 21.128H169.619C169.171 22.6213 168.312 23.8533 167.043 24.824C165.773 25.776 164.215 26.252 162.367 26.252C160.873 26.252 159.529 25.9253 158.335 25.272C157.159 24.6 156.235 23.6573 155.563 22.444C154.909 21.2307 154.583 19.8307 154.583 18.244C154.583 16.6387 154.909 15.2293 155.563 14.016C156.216 12.8027 157.131 11.8693 158.307 11.216C159.483 10.5627 160.836 10.236 162.367 10.236C163.841 10.236 165.157 10.5533 166.315 11.188C167.491 11.8227 168.396 12.728 169.031 13.904C169.684 15.0613 170.011 16.396 170.011 17.908ZM165.951 16.788C165.932 15.78 165.568 14.9773 164.859 14.38C164.149 13.764 163.281 13.456 162.255 13.456C161.284 13.456 160.463 13.7547 159.791 14.352C159.137 14.9307 158.736 15.7427 158.587 16.788H165.951ZM172.164 18.188C172.164 16.62 172.472 15.2293 173.088 14.016C173.723 12.8027 174.581 11.8693 175.664 11.216C176.747 10.5627 177.951 10.236 179.276 10.236C180.284 10.236 181.245 10.46 182.16 10.908C183.075 11.3373 183.803 11.916 184.344 12.644V5.28H188.32V26H184.344V23.704C183.859 24.4693 183.177 25.0853 182.3 25.552C181.423 26.0187 180.405 26.252 179.248 26.252C177.941 26.252 176.747 25.916 175.664 25.244C174.581 24.572 173.723 23.6293 173.088 22.416C172.472 21.184 172.164 19.7747 172.164 18.188ZM184.372 18.244C184.372 17.292 184.185 16.48 183.812 15.808C183.439 15.1173 182.935 14.5947 182.3 14.24C181.665 13.8667 180.984 13.68 180.256 13.68C179.528 13.68 178.856 13.8573 178.24 14.212C177.624 14.5667 177.12 15.0893 176.728 15.78C176.355 16.452 176.168 17.2547 176.168 18.188C176.168 19.1213 176.355 19.9427 176.728 20.652C177.12 21.3427 177.624 21.8747 178.24 22.248C178.875 22.6213 179.547 22.808 180.256 22.808C180.984 22.808 181.665 22.6307 182.3 22.276C182.935 21.9027 183.439 21.38 183.812 20.708C184.185 20.0173 184.372 19.196 184.372 18.244Z" fill="#373737"/>
<path opacity="0.7" d="M76.64 42.49L72.932 55H70.61L67.982 45.532L65.192 55L62.888 55.018L59.342 42.49H61.52L64.112 52.678L66.92 42.49H69.224L71.834 52.624L74.444 42.49H76.64ZM82.9344 55.162C81.9984 55.162 81.1524 54.952 80.3964 54.532C79.6404 54.1 79.0464 53.5 78.6144 52.732C78.1824 51.952 77.9664 51.052 77.9664 50.032C77.9664 49.024 78.1884 48.13 78.6324 47.35C79.0764 46.57 79.6824 45.97 80.4504 45.55C81.2184 45.13 82.0764 44.92 83.0244 44.92C83.9724 44.92 84.8304 45.13 85.5984 45.55C86.3664 45.97 86.9724 46.57 87.4164 47.35C87.8604 48.13 88.0824 49.024 88.0824 50.032C88.0824 51.04 87.8544 51.934 87.3984 52.714C86.9424 53.494 86.3184 54.1 85.5264 54.532C84.7464 54.952 83.8824 55.162 82.9344 55.162ZM82.9344 53.38C83.4624 53.38 83.9544 53.254 84.4104 53.002C84.8784 52.75 85.2564 52.372 85.5444 51.868C85.8324 51.364 85.9764 50.752 85.9764 50.032C85.9764 49.312 85.8384 48.706 85.5624 48.214C85.2864 47.71 84.9204 47.332 84.4644 47.08C84.0084 46.828 83.5164 46.702 82.9884 46.702C82.4604 46.702 81.9684 46.828 81.5124 47.08C81.0684 47.332 80.7144 47.71 80.4504 48.214C80.1864 48.706 80.0544 49.312 80.0544 50.032C80.0544 51.1 80.3244 51.928 80.8644 52.516C81.4164 53.092 82.1064 53.38 82.9344 53.38ZM92.4629 46.522C92.7629 46.018 93.1589 45.628 93.6509 45.352C94.1549 45.064 94.7489 44.92 95.4329 44.92V47.044H94.9109C94.1069 47.044 93.4949 47.248 93.0749 47.656C92.6669 48.064 92.4629 48.772 92.4629 49.78V55H90.4109V45.082H92.4629V46.522ZM101.543 50.05L106.115 55H103.343L99.6711 50.734V55H97.6191V41.68H99.6711V49.42L103.271 45.082H106.115L101.543 50.05ZM120.944 42.49V44.164H117.614V55H115.562V44.164H112.214V42.49H120.944ZM132.412 49.798C132.412 50.17 132.388 50.506 132.34 50.806H124.762C124.822 51.598 125.116 52.234 125.644 52.714C126.172 53.194 126.82 53.434 127.588 53.434C128.692 53.434 129.472 52.972 129.928 52.048H132.142C131.842 52.96 131.296 53.71 130.504 54.298C129.724 54.874 128.752 55.162 127.588 55.162C126.64 55.162 125.788 54.952 125.032 54.532C124.288 54.1 123.7 53.5 123.268 52.732C122.848 51.952 122.638 51.052 122.638 50.032C122.638 49.012 122.842 48.118 123.25 47.35C123.67 46.57 124.252 45.97 124.996 45.55C125.752 45.13 126.616 44.92 127.588 44.92C128.524 44.92 129.358 45.124 130.09 45.532C130.822 45.94 131.392 46.516 131.8 47.26C132.208 47.992 132.412 48.838 132.412 49.798ZM130.27 49.15C130.258 48.394 129.988 47.788 129.46 47.332C128.932 46.876 128.278 46.648 127.498 46.648C126.79 46.648 126.184 46.876 125.68 47.332C125.176 47.776 124.876 48.382 124.78 49.15H130.27ZM134.047 49.996C134.047 49 134.251 48.118 134.659 47.35C135.079 46.582 135.643 45.988 136.351 45.568C137.071 45.136 137.863 44.92 138.727 44.92C139.507 44.92 140.185 45.076 140.761 45.388C141.349 45.688 141.817 46.066 142.165 46.522V45.082H144.235V55H142.165V53.524C141.817 53.992 141.343 54.382 140.743 54.694C140.143 55.006 139.459 55.162 138.691 55.162C137.839 55.162 137.059 54.946 136.351 54.514C135.643 54.07 135.079 53.458 134.659 52.678C134.251 51.886 134.047 50.992 134.047 49.996ZM142.165 50.032C142.165 49.348 142.021 48.754 141.733 48.25C141.457 47.746 141.091 47.362 140.635 47.098C140.179 46.834 139.687 46.702 139.159 46.702C138.631 46.702 138.139 46.834 137.683 47.098C137.227 47.35 136.855 47.728 136.567 48.232C136.291 48.724 136.153 49.312 136.153 49.996C136.153 50.68 136.291 51.28 136.567 51.796C136.855 52.312 137.227 52.708 137.683 52.984C138.151 53.248 138.643 53.38 139.159 53.38C139.687 53.38 140.179 53.248 140.635 52.984C141.091 52.72 141.457 52.336 141.733 51.832C142.021 51.316 142.165 50.716 142.165 50.032ZM159.236 44.92C160.016 44.92 160.712 45.082 161.324 45.406C161.948 45.73 162.434 46.21 162.782 46.846C163.142 47.482 163.322 48.25 163.322 49.15V55H161.288V49.456C161.288 48.568 161.066 47.89 160.622 47.422C160.178 46.942 159.572 46.702 158.804 46.702C158.036 46.702 157.424 46.942 156.968 47.422C156.524 47.89 156.302 48.568 156.302 49.456V55H154.268V49.456C154.268 48.568 154.046 47.89 153.602 47.422C153.158 46.942 152.552 46.702 151.784 46.702C151.016 46.702 150.404 46.942 149.948 47.422C149.504 47.89 149.282 48.568 149.282 49.456V55H147.23V45.082H149.282V46.216C149.618 45.808 150.044 45.49 150.56 45.262C151.076 45.034 151.628 44.92 152.216 44.92C153.008 44.92 153.716 45.088 154.34 45.424C154.964 45.76 155.444 46.246 155.78 46.882C156.08 46.282 156.548 45.808 157.184 45.46C157.82 45.1 158.504 44.92 159.236 44.92Z" fill="#2F2F2F"/>
<path d="M22.9888 3C24.6903 3 26.2309 3.945 27.0817 5.34C27.4956 6.015 27.7715 6.8475 27.7025 7.725C27.6565 8.4 27.8635 9.075 28.2314 9.705C29.4041 11.6175 32.0024 12.3375 34.0259 11.2575C36.3023 9.9525 39.1766 10.74 40.4872 12.9675L42.0278 15.6225C43.3615 17.85 42.6257 20.7075 40.3263 21.99C38.3718 23.1375 37.6819 25.68 38.8546 27.615C39.2226 28.2225 39.6364 28.74 40.2803 29.055C41.0851 29.4825 41.7059 30.1575 42.1428 30.8325C42.9936 32.2275 42.9246 33.9375 42.0968 35.445L40.4872 38.145C39.6364 39.585 38.0499 40.485 36.4173 40.485C35.6125 40.485 34.7157 40.26 33.9799 39.81C33.3821 39.4275 32.6922 39.2925 31.9564 39.2925C29.68 39.2925 27.7715 41.16 27.7025 43.3875C27.7025 45.975 25.5871 48 22.9428 48H19.8156C17.1483 48 15.0328 45.975 15.0328 43.3875C14.9868 41.16 13.0783 39.2925 10.8019 39.2925C10.0431 39.2925 9.35329 39.4275 8.77844 39.81C8.04263 40.26 7.12287 40.485 6.34107 40.485C4.6855 40.485 3.09891 39.585 2.24813 38.145L0.661545 35.445C-0.189235 33.9825 -0.235223 32.2275 0.615556 30.8325C0.983461 30.1575 1.67328 29.4825 2.45508 29.055C3.09891 28.74 3.51281 28.2225 3.9037 27.615C5.05341 25.68 4.36359 23.1375 2.40909 21.99C0.132682 20.7075 -0.603128 17.85 0.707533 15.6225L2.24813 12.9675C3.58179 10.74 6.43305 9.9525 8.73245 11.2575C10.7329 12.3375 13.3313 11.6175 14.504 9.705C14.8719 9.075 15.0788 8.4 15.0328 7.725C14.9868 6.8475 15.2398 6.015 15.6767 5.34C16.5274 3.945 18.068 3.045 19.7466 3H22.9888ZM21.4022 19.155C17.7921 19.155 14.8719 21.99 14.8719 25.5225C14.8719 29.055 17.7921 31.8675 21.4022 31.8675C25.0122 31.8675 27.8635 29.055 27.8635 25.5225C27.8635 21.99 25.0122 19.155 21.4022 19.155Z" fill="#FE7443"/>
</svg>
